<svg width="203" height="186" fill="none" xmlns="http://www.w3.org/2000/svg">
  <circle cx="5.467" cy="5.467" r="5.467" fill="#E0EDFF"/>
  <circle cx="32.804" cy="5.467" r="5.467" fill="#E0EDFF"/>
  <circle cx="60.142" cy="5.467" r="5.467" fill="#E0EDFF"/>
  <circle cx="142.153" cy="5.467" r="5.467" fill="#E0EDFF"/>
  <circle cx="87.478" cy="5.467" r="5.467" fill="#E0EDFF"/>
  <circle cx="169.49" cy="5.467" r="5.467" fill="#E0EDFF"/>
  <circle cx="114.816" cy="5.467" r="5.467" fill="#E0EDFF"/>
  <circle cx="196.827" cy="5.467" r="5.467" fill="#E0EDFF"/>
  <circle cx="5.467" cy="27.337" r="5.467" fill="#E0EDFF"/>
  <circle cx="32.804" cy="27.337" r="5.467" fill="#E0EDFF"/>
  <circle cx="60.142" cy="27.337" r="5.467" fill="#E0EDFF"/>
  <circle cx="142.153" cy="27.337" r="5.467" fill="#E0EDFF"/>
  <circle cx="87.478" cy="27.337" r="5.467" fill="#E0EDFF"/>
  <circle cx="169.49" cy="27.337" r="5.467" fill="#E0EDFF"/>
  <circle cx="114.816" cy="27.337" r="5.467" fill="#E0EDFF"/>
  <circle cx="196.827" cy="27.337" r="5.467" fill="#E0EDFF"/>
  <circle cx="5.467" cy="49.207" r="5.467" fill="#E0EDFF"/>
  <circle cx="32.804" cy="49.207" r="5.467" fill="#E0EDFF"/>
  <circle cx="60.142" cy="49.207" r="5.467" fill="#E0EDFF"/>
  <circle cx="142.153" cy="49.207" r="5.467" fill="#E0EDFF"/>
  <circle cx="87.478" cy="49.207" r="5.467" fill="#E0EDFF"/>
  <circle cx="169.49" cy="49.207" r="5.467" fill="#E0EDFF"/>
  <circle cx="114.816" cy="49.207" r="5.467" fill="#E0EDFF"/>
  <circle cx="196.827" cy="49.207" r="5.467" fill="#E0EDFF"/>
  <circle cx="5.467" cy="71.076" r="5.467" fill="#E0EDFF"/>
  <circle cx="32.804" cy="71.076" r="5.467" fill="#E0EDFF"/>
  <circle cx="60.142" cy="71.076" r="5.467" fill="#E0EDFF"/>
  <circle cx="142.153" cy="71.076" r="5.467" fill="#E0EDFF"/>
  <circle cx="87.478" cy="71.076" r="5.467" fill="#E0EDFF"/>
  <circle cx="169.49" cy="71.076" r="5.467" fill="#E0EDFF"/>
  <circle cx="114.816" cy="71.076" r="5.467" fill="#E0EDFF"/>
  <circle cx="196.827" cy="71.076" r="5.467" fill="#E0EDFF"/>
  <circle cx="5.467" cy="92.946" r="5.467" fill="#E0EDFF"/>
  <circle cx="32.804" cy="92.946" r="5.467" fill="#E0EDFF"/>
  <circle cx="60.142" cy="92.946" r="5.467" fill="#E0EDFF"/>
  <circle cx="142.153" cy="92.946" r="5.467" fill="#E0EDFF"/>
  <circle cx="87.478" cy="92.946" r="5.467" fill="#E0EDFF"/>
  <circle cx="169.49" cy="92.946" r="5.467" fill="#E0EDFF"/>
  <circle cx="114.816" cy="92.946" r="5.467" fill="#E0EDFF"/>
  <circle cx="196.827" cy="92.946" r="5.467" fill="#E0EDFF"/>
  <circle cx="5.467" cy="114.816" r="5.467" fill="#E0EDFF"/>
  <circle cx="32.804" cy="114.816" r="5.467" fill="#E0EDFF"/>
  <circle cx="60.142" cy="114.816" r="5.467" fill="#E0EDFF"/>
  <circle cx="142.153" cy="114.816" r="5.467" fill="#E0EDFF"/>
  <circle cx="87.478" cy="114.816" r="5.467" fill="#E0EDFF"/>
  <circle cx="169.49" cy="114.816" r="5.467" fill="#E0EDFF"/>
  <circle cx="114.816" cy="114.816" r="5.467" fill="#E0EDFF"/>
  <circle cx="196.827" cy="114.816" r="5.467" fill="#E0EDFF"/>
  <circle cx="5.467" cy="136.685" r="5.467" fill="#E0EDFF"/>
  <circle cx="32.804" cy="136.685" r="5.467" fill="#E0EDFF"/>
  <circle cx="60.142" cy="136.685" r="5.467" fill="#E0EDFF"/>
  <circle cx="142.153" cy="136.685" r="5.467" fill="#E0EDFF"/>
  <circle cx="87.478" cy="136.685" r="5.467" fill="#E0EDFF"/>
  <circle cx="169.49" cy="136.685" r="5.467" fill="#E0EDFF"/>
  <circle cx="114.816" cy="136.685" r="5.467" fill="#E0EDFF"/>
  <circle cx="196.827" cy="136.685" r="5.467" fill="#E0EDFF"/>
  <circle cx="5.467" cy="158.555" r="5.467" fill="#E0EDFF"/>
  <circle cx="32.804" cy="158.555" r="5.467" fill="#E0EDFF"/>
  <circle cx="60.142" cy="158.555" r="5.467" fill="#E0EDFF"/>
  <circle cx="142.153" cy="158.555" r="5.467" fill="#E0EDFF"/>
  <circle cx="87.478" cy="158.555" r="5.467" fill="#E0EDFF"/>
  <circle cx="169.49" cy="158.555" r="5.467" fill="#E0EDFF"/>
  <circle cx="114.816" cy="158.555" r="5.467" fill="#E0EDFF"/>
  <circle cx="196.827" cy="158.555" r="5.467" fill="#E0EDFF"/>
  <circle cx="5.467" cy="180.424" r="5.467" fill="#E0EDFF"/>
  <circle cx="32.804" cy="180.424" r="5.467" fill="#E0EDFF"/>
  <circle cx="60.142" cy="180.424" r="5.467" fill="#E0EDFF"/>
  <circle cx="142.153" cy="180.424" r="5.467" fill="#E0EDFF"/>
  <circle cx="87.478" cy="180.424" r="5.467" fill="#E0EDFF"/>
  <circle cx="169.49" cy="180.424" r="5.467" fill="#E0EDFF"/>
  <circle cx="114.816" cy="180.424" r="5.467" fill="#E0EDFF"/>
  <circle cx="196.827" cy="180.424" r="5.467" fill="#E0EDFF"/>
</svg>
