<svg width="50" height="50" viewBox="0 0 50 50" fill="none" xmlns="http://www.w3.org/2000/svg">
<path d="M37.7626 29.7268C34.2873 29.7268 31.46 32.5541 31.46 36.0293C31.46 39.5046 34.2873 42.3319 37.7626 42.3319C41.2384 42.3319 44.0651 39.5046 44.0651 36.0293C44.0651 32.5541 41.2379 29.7268 37.7626 29.7268ZM37.7626 39.1806C36.0247 39.1806 34.6113 37.7672 34.6113 36.0293C34.6113 34.2915 36.0247 32.8781 37.7626 32.8781C39.5004 32.8781 40.9138 34.2915 40.9138 36.0293C40.9138 37.7673 39.5004 39.1806 37.7626 39.1806Z" fill="#083C6E"/>
<path d="M16.229 29.7268C12.7537 29.7268 9.92645 32.5541 9.92645 36.0293C9.92645 39.5046 12.7537 42.3319 16.229 42.3319C19.7043 42.3319 22.5315 39.5046 22.5315 36.0293C22.5315 32.5541 19.7043 29.7268 16.229 29.7268ZM16.229 39.1806C14.4911 39.1806 13.0777 37.7672 13.0777 36.0293C13.0777 34.2915 14.4911 32.8781 16.229 32.8781C17.9664 32.8781 19.3803 34.2915 19.3803 36.0293C19.3803 37.7673 17.9669 39.1806 16.229 39.1806Z" fill="#083C6E"/>
<path d="M42.0069 11.687C41.739 11.155 41.1944 10.8193 40.5988 10.8193H32.3004V13.9706H39.6271L43.9175 22.5042L46.7337 21.0882L42.0069 11.687Z" fill="#083C6E"/>
<path d="M33.0357 34.5063H21.1135V37.6576H33.0357V34.5063Z" fill="#083C6E"/>
<path d="M11.5021 34.5063H6.03994C5.16963 34.5063 4.46436 35.2117 4.46436 36.0819C4.46436 36.9522 5.16973 37.6575 6.03994 37.6575H11.5021C12.3725 37.6575 13.0777 36.9521 13.0777 36.0819C13.0777 35.2116 12.3724 34.5063 11.5021 34.5063Z" fill="#083C6E"/>
<path d="M49.6691 24.8738L46.5699 20.8822C46.2722 20.4978 45.8126 20.2729 45.3257 20.2729H33.8761V9.24355C33.8761 8.37324 33.1707 7.66797 32.3005 7.66797H6.03994C5.16963 7.66797 4.46436 8.37334 4.46436 9.24355C4.46436 10.1138 5.16973 10.8191 6.03994 10.8191H30.7248V21.8485C30.7248 22.7188 31.4302 23.4241 32.3004 23.4241H44.5541L46.8487 26.38V34.5061H42.4895C41.6191 34.5061 40.9139 35.2114 40.9139 36.0816C40.9139 36.952 41.6192 37.6572 42.4895 37.6572H48.4243C49.2946 37.6572 49.9999 36.9519 50 36.0816V25.8402C50 25.4904 49.8834 25.1501 49.6691 24.8738Z" fill="#083C6E"/>
<path d="M11.3971 26.5232H4.14913C3.27882 26.5232 2.57355 27.2286 2.57355 28.0988C2.57355 28.9691 3.27892 29.6744 4.14913 29.6744H11.397C12.2673 29.6744 12.9726 28.969 12.9726 28.0988C12.9727 27.2286 12.2673 26.5232 11.3971 26.5232Z" fill="#083C6E"/>
<path d="M15.021 20.3257H1.57559C0.705371 20.3257 0 21.0311 0 21.9014C0 22.7717 0.705371 23.477 1.57559 23.477H15.021C15.8913 23.477 16.5966 22.7716 16.5966 21.9014C16.5966 21.0312 15.8913 20.3257 15.021 20.3257Z" fill="#083C6E"/>
<path d="M17.5945 14.1282H4.14913C3.27882 14.1282 2.57355 14.8335 2.57355 15.7038C2.57355 16.5741 3.27892 17.2793 4.14913 17.2793H17.5945C18.4649 17.2793 19.1701 16.574 19.1701 15.7038C19.1702 14.8335 18.4649 14.1282 17.5945 14.1282Z" fill="#083C6E"/>
</svg>
