<svg width="168" height="363" viewBox="0 0 168 363" fill="none" xmlns="http://www.w3.org/2000/svg">
<path d="M71.1069 362.637C68.335 363.138 66.3166 362.733 65.0517 361.42C63.5994 360.288 62.6158 358.704 62.101 356.669C61.4056 354.446 61.0852 351.861 61.1398 348.916C61.3752 346.157 59.9042 341.065 56.7268 333.639C53.7302 326.401 49.7431 317.947 44.7657 308.278C39.795 298.24 34.0982 287.636 27.6752 276.467C21.4397 265.116 15.1973 254.134 8.94818 243.52C2.69902 232.907 -3.199 223.22 -8.74587 214.461C-14.2928 205.702 -18.7691 198.804 -22.175 193.769C-26.2968 187.614 -30.7766 180.901 -35.6144 173.628C-39.9169 167.287 -44.9388 160.011 -50.68 151.8C-56.6019 143.403 -63.3404 134.345 -70.8954 124.628L-58.1497 92.8183C-56.4073 88.2463 -53.7956 86.453 -50.3146 87.4384C-47.0143 88.2364 -42.7679 92.6432 -37.5756 100.659C-34.8857 104.577 -30.5866 111.102 -24.6783 120.237C-18.9507 129.183 -12.6913 139.245 -5.9001 150.421C0.89798 161.229 7.77957 172.5 14.7447 184.232C21.7166 195.596 27.6947 205.928 32.679 215.23C37.4895 223.975 43.0124 234.023 49.2479 245.373C59.7518 264.906 73.9887 291.692 91.9588 325.729C98.9208 327.7 105.965 325.252 113.091 318.386C120.967 310.797 127.171 299.032 131.703 283.093C136.422 266.974 137.875 248.215 136.062 226.817C134.249 205.419 128.326 182.195 118.293 157.146C108.266 131.728 92.536 106.02 71.1017 80.0221C59.3907 65.9917 47.6216 55.0913 35.7945 47.3207C23.9673 39.5501 12.4572 34.548 1.26399 32.3144C-9.74166 29.9001 -20.2462 30.2577 -30.2497 33.3873C-40.0656 36.3361 -49.0054 41.6955 -57.0691 49.4653C-76.0093 67.7155 -88.0166 94.4742 -93.0912 129.741L-116.994 107.75C-117.359 97.6133 -115.802 88.1572 -112.324 79.3814C-108.839 70.2373 -105.1 62.2951 -101.108 55.5548C-96.3579 47.7234 -90.7917 40.5518 -84.409 34.04C-72.4073 22.4755 -58.6157 13.7069 -43.0342 7.73404C-27.446 1.393 -11.1026 -0.974281 5.99574 0.632185C23.2817 2.05796 40.9476 7.81887 58.9935 17.9149C76.8587 27.8235 94.26 42.8802 111.198 63.0853C120.928 74.6846 129.609 88.1983 137.243 103.626C144.883 118.686 151.123 134.733 155.964 151.767C160.992 168.62 164.353 185.995 166.047 203.891C167.741 221.787 167.42 239.094 165.084 255.81C162.929 272.714 158.491 288.563 151.77 303.356C145.23 318.337 136.147 331.429 124.52 342.632C120.777 345.878 116.3 348.926 111.09 351.776C106.624 354.272 101.056 356.563 94.3868 358.649C87.7179 360.735 79.9579 362.065 71.1069 362.637Z" fill="#E0EDFF"/>
</svg>
