<svg width="52" height="52" viewBox="0 0 52 52" fill="none" xmlns="http://www.w3.org/2000/svg">
<path d="M39.5742 28.5593C40.3096 28.0872 40.9385 27.4422 41.3923 26.6565C42.2189 25.2251 42.3545 23.5239 41.8229 22.0101C43.0401 20.9649 43.7734 19.4237 43.7734 17.771C43.7734 16.1183 43.0401 14.5771 41.8229 13.5319C42.3544 12.0181 42.2188 10.3169 41.3923 8.8855C40.5658 7.45408 39.1601 6.48598 37.5831 6.18942C37.2864 4.61287 36.3182 3.20724 34.8867 2.38083C33.455 1.55441 31.7534 1.41883 30.2397 1.9502C29.1944 0.73318 27.653 0 26 0C24.347 0 22.8057 0.73318 21.7603 1.9503C20.2465 1.41883 18.5449 1.55441 17.1133 2.38093C15.6818 3.20734 14.7136 4.61297 14.4168 6.18952C12.84 6.48619 11.4342 7.45428 10.6077 8.8856C9.78108 10.317 9.6455 12.0182 10.1771 13.532C8.95995 14.5771 8.22657 16.1183 8.22657 17.771C8.22657 19.4237 8.95995 20.9649 10.1771 22.0101C9.6456 23.5239 9.78118 25.2251 10.6077 26.6565C11.0614 27.4423 11.6904 28.0873 12.4257 28.5594L0.472168 40.5111L10.6368 41.8367L11.9627 52L26 37.9647L40.0373 52L41.3632 41.8367L51.5278 40.5111L39.5742 28.5593ZM40.7266 17.771C40.7266 18.7707 40.136 19.6807 39.2218 20.0894L37.5912 20.8184C37.8474 19.8449 37.9845 18.8237 37.9845 17.771C37.9845 16.7183 37.8475 15.697 37.5912 14.7236L39.2218 15.4526C40.136 15.8613 40.7266 16.7713 40.7266 17.771ZM17.3811 28.0606L17.566 26.2753C19.013 27.7101 20.8231 28.779 22.8444 29.3312L21.3971 30.3789C20.5861 30.966 19.5025 31.0226 18.6366 30.5227C17.7709 30.023 17.278 29.0565 17.3811 28.0606ZM15.709 26.3887C14.7123 26.4918 13.7463 25.9989 13.2464 25.1332C12.7465 24.2674 12.8031 23.1841 13.3903 22.3732L14.4381 20.9262C14.9904 22.9473 16.0595 24.7571 17.4946 26.2039L15.709 26.3887ZM17.0625 17.771C17.0625 12.8435 21.0719 8.83472 26 8.83472C30.9281 8.83472 34.9375 12.8435 34.9375 17.771C34.9375 22.6985 30.9281 26.7073 26 26.7073C21.0719 26.7073 17.0625 22.6985 17.0625 17.771ZM34.4341 26.2754L34.6189 28.0607C34.722 29.0565 34.2291 30.023 33.3633 30.5229C32.4974 31.0228 31.4141 30.9663 30.6028 30.3791L29.1556 29.3315C31.177 28.7791 32.987 27.7102 34.4341 26.2754ZM34.5055 26.204C35.9405 24.7572 37.0095 22.9474 37.5619 20.9263L38.6097 22.3733C39.1969 23.1843 39.2535 24.2676 38.7536 25.1333C38.2537 25.999 37.2862 26.492 36.291 26.3888L34.5055 26.204ZM36.291 9.15322C37.2873 9.05003 38.2537 9.54302 38.7536 10.4087C39.2535 11.2745 39.1969 12.3578 38.6097 13.1687L37.5619 14.6157C37.0096 12.5946 35.9405 10.7848 34.5055 9.33796L36.291 9.15322ZM30.6028 5.16303C31.4138 4.5759 32.4974 4.51933 33.3633 5.01922C34.2292 5.51911 34.722 6.48548 34.6189 7.4814L34.4341 9.26666C32.987 7.83189 31.177 6.76305 29.1557 6.21075L30.6028 5.16303ZM23.6813 4.55112C24.0901 3.63705 25.0002 3.04647 26 3.04647C26.9998 3.04647 27.9099 3.63705 28.3187 4.55112L29.048 6.1815C28.0744 5.92536 27.053 5.78825 26 5.78825C24.947 5.78825 23.9256 5.92526 22.952 6.1815L23.6813 4.55112ZM18.6367 5.01912C19.5026 4.51923 20.586 4.5757 21.3972 5.16293L22.8445 6.21055C20.8232 6.76274 19.0131 7.83169 17.5661 9.26646L17.3812 7.4812C17.278 6.48548 17.7709 5.51901 18.6367 5.01912ZM13.2464 10.4087C13.7463 9.54302 14.7135 9.05013 15.709 9.15322L17.4946 9.33796C16.0595 10.7848 14.9905 12.5946 14.4381 14.6157L13.3903 13.1687C12.8031 12.3578 12.7465 11.2745 13.2464 10.4087ZM11.2734 17.771C11.2734 16.7713 11.864 15.8613 12.7782 15.4526L14.4088 14.7236C14.1526 15.6971 14.0155 16.7183 14.0155 17.771C14.0155 18.8237 14.1525 19.845 14.4088 20.8184L12.7782 20.0894C11.864 19.6806 11.2734 18.7707 11.2734 17.771ZM14.1836 45.471L13.3551 39.1189L7.00213 38.2904L14.773 30.5205C15.2393 31.6093 16.0476 32.5458 17.1132 33.161C18.5448 33.9874 20.2465 34.1229 21.7602 33.5916C22.4488 34.3933 23.3532 34.9831 24.3623 35.2937L14.1836 45.471ZM23.6813 30.9909L22.952 29.3605C23.9256 29.6166 24.947 29.7537 26 29.7537C27.053 29.7537 28.0744 29.6167 29.048 29.3605L28.3187 30.9909C27.9099 31.9049 26.9998 32.4955 26 32.4955C25.0002 32.4955 24.0901 31.9049 23.6813 30.9909ZM38.6449 39.1189L37.8164 45.471L27.6377 35.2938C28.6468 34.9832 29.5512 34.3934 30.2398 33.5917C31.7536 34.1232 33.4552 33.9875 34.8868 33.1611C35.9525 32.5459 36.7609 31.6094 37.2271 30.5206L44.998 38.2905L38.6449 39.1189Z" fill="#083C6E"/>
</svg>
