<svg width="45" height="45" viewBox="0 0 45 45" fill="none" xmlns="http://www.w3.org/2000/svg">
<path d="M44.7345 15.526C44.1527 13.8057 42.7547 12.7217 41.5211 11.7645C40.862 11.2537 40.2394 10.7707 39.8796 10.2974C39.513 9.81445 39.2232 9.09348 38.917 8.32947C38.3499 6.91681 37.7058 5.31647 36.2159 4.27689C34.7575 3.2579 32.9998 3.16315 31.449 3.08167C30.5774 3.03452 29.754 2.99057 29.1268 2.79465C28.5524 2.61658 27.8887 2.2023 27.1865 1.76331C25.8627 0.936584 24.3618 0 22.4992 0C20.6357 0 19.1366 0.936584 17.8138 1.76331C17.1107 2.2023 16.4479 2.61566 15.8725 2.79556C15.2463 2.99057 14.4219 3.03452 13.5494 3.08167C11.9995 3.16498 10.2427 3.2579 8.78253 4.27689C7.29349 5.31647 6.65037 6.91681 6.08231 8.32855C5.77608 9.09256 5.48542 9.81445 5.11785 10.2992C4.75806 10.7735 4.13554 11.2564 3.47547 11.7673C2.24461 12.7235 0.846664 13.8066 0.265791 15.5251C-0.300435 17.1954 0.154102 18.8448 0.555083 20.2995C0.778461 21.1098 0.98948 21.8738 0.98948 22.5C0.98948 23.1271 0.778461 23.8911 0.555083 24.7023C0.154102 26.1562 -0.29952 27.805 0.265791 29.4768C0.84758 31.1952 2.24461 32.2778 3.4773 33.2341C4.13645 33.7454 4.75898 34.2279 5.11876 34.7012C5.48542 35.1851 5.77517 35.9061 6.08231 36.671C6.64945 38.0841 7.29441 39.6844 8.78527 40.7259C10.2436 41.743 11.9995 41.8369 13.5494 41.9183C14.4219 41.965 15.2463 42.0094 15.8725 42.2044C16.4469 42.3834 17.1098 42.7977 17.811 43.2362C19.1348 44.0634 20.6357 45 22.4992 45C24.3627 45 25.8645 44.0634 27.1883 43.2362C27.8905 42.7977 28.5533 42.3843 29.1278 42.2044C29.754 42.0094 30.5783 41.965 31.4508 41.9183C33.0007 41.8359 34.7566 41.7421 36.2159 40.7249C37.7067 39.6844 38.3499 38.0823 38.9188 36.6682C39.2251 35.9052 39.5148 35.1833 39.8796 34.7026C40.2394 34.2279 40.862 33.7454 41.5211 33.235C42.7538 32.2787 44.1527 31.1952 44.7345 29.4768C45.3007 27.805 44.8452 26.1562 44.4442 24.7009C44.22 23.8911 44.0089 23.1253 44.0089 22.4991C44.0089 21.8729 44.22 21.1075 44.4442 20.2977C44.8452 18.8448 45.2998 17.1945 44.7345 15.526ZM40.8295 25.6989C41.0991 26.6794 41.3797 27.6938 41.1828 28.2738C40.9631 28.9238 40.0792 29.6091 39.2242 30.2719C38.4021 30.9091 37.5529 31.5674 36.8929 32.4367C36.2237 33.3188 35.8241 34.3117 35.4391 35.2707C35.0294 36.2878 34.6431 37.2487 34.0691 37.6497C33.4891 38.0557 32.4024 38.1129 31.2512 38.1747C30.1865 38.232 29.0856 38.2901 28.0132 38.6247C26.9773 38.9474 26.0755 39.51 25.2026 40.0548C24.2185 40.6696 23.2893 41.25 22.4992 41.25C21.7101 41.25 20.7808 40.6696 19.7976 40.0566C18.9247 39.5119 18.023 38.9474 16.9871 38.6256C15.9137 38.291 14.8137 38.232 13.749 38.1757C12.5978 38.1148 11.5111 38.0566 10.9321 37.652C10.3572 37.2505 9.97128 36.2897 9.5616 35.2725C9.17527 34.3135 8.77566 33.3197 8.10461 32.4367C7.44638 31.5683 6.59727 30.9091 5.77517 30.2719C4.92102 29.61 4.03712 28.9238 3.81741 28.2747C3.62058 27.6938 3.90026 26.6794 4.16987 25.6975C4.43627 24.7311 4.73838 23.6343 4.73838 22.5009C4.73838 21.3675 4.43627 20.2716 4.16987 19.3039C3.90026 18.3234 3.62058 17.3099 3.81741 16.7276C4.03712 16.0789 4.9201 15.3937 5.77425 14.7318C6.59635 14.0932 7.4473 13.4335 8.10461 12.5661C8.77566 11.6821 9.17618 10.6883 9.56252 9.72839C9.97128 8.71216 10.3572 7.75223 10.9293 7.3526C11.5111 6.94565 12.5987 6.88751 13.7499 6.82571C14.8137 6.76849 15.9137 6.70944 16.9862 6.37665C18.023 6.05438 18.9256 5.48996 19.7994 4.94522C20.7827 4.32907 21.711 3.75 22.4992 3.75C23.2884 3.75 24.2167 4.32907 25.2008 4.94339C26.0746 5.48904 26.9773 6.05347 28.0132 6.3739C29.0866 6.70761 30.1856 6.76758 31.2494 6.82388C32.4006 6.88477 33.4882 6.9429 34.0691 7.35077C34.6431 7.75131 35.028 8.71033 35.4368 9.72656C35.8231 10.6865 36.2228 11.6803 36.8938 12.5642C37.5529 13.4312 38.4021 14.0904 39.2242 14.7281C40.0783 15.39 40.9622 16.0762 41.1828 16.7267C41.3797 17.3071 41.0991 18.3206 40.8295 19.3011C40.5621 20.2689 40.2591 21.3657 40.2591 22.5C40.2591 23.6343 40.5621 24.7311 40.8295 25.6989Z" fill="#083C6E"/>
<path d="M30.9362 22.5013C30.9362 27.1537 27.1516 30.9383 22.4992 30.9383C17.8467 30.9383 14.0622 27.1537 14.0622 22.5013C14.0622 17.8488 17.8467 14.0642 22.4992 14.0642H24.3741V10.3145H22.4992C15.7796 10.3145 10.3124 15.7817 10.3124 22.5013C10.3124 29.2209 15.7796 34.6881 22.4992 34.6881C29.2188 34.6881 34.686 29.2209 34.686 22.5013V20.6264H30.9362V22.5013Z" fill="#083C6E"/>
<path d="M20.6244 17.9753L17.9731 20.6265L22.4993 25.1521L32.6501 15.0018L29.9988 12.3506L22.4993 19.8502L20.6244 17.9753Z" fill="#083C6E"/>
</svg>
