<svg width="131" height="55" fill="none" xmlns="http://www.w3.org/2000/svg"><path d="M15.3634.436c3.1861 0 5.9703.6396 8.3526 1.9188 2.3824 1.279 4.2194 3.0815 5.511 5.4071 1.3203 2.2967 1.9805 4.9566 1.9805 7.98 0 2.9943-.6602 5.6543-1.9805 7.98-1.2916 2.3257-3.143 4.1281-5.554 5.4072-2.3824 1.2791-5.1522 1.9187-8.3096 1.9187H4.0401V.4361h11.3233zm-.4736 24.158c2.7842 0 4.9513-.7703 6.5013-2.3111 1.5499-1.5408 2.3249-3.7211 2.3249-6.541 0-2.8199-.775-5.0147-2.3249-6.5846-1.55-1.5698-3.7171-2.3547-6.5013-2.3547h-3.4874V24.594h3.4874zM49.1425 6.4101v6.1922h9.8595v5.756h-9.8595v6.7154h11.1511v5.9741H41.7801V.4361h18.5135V6.41H49.1425zM82.4674 31.353c-2.2102 0-4.1907-.3633-5.9416-1.0901-1.7508-.7268-3.1573-1.8024-4.2193-3.2269-1.0333-1.4245-1.5787-3.1397-1.6361-5.1456h7.836c.1148 1.1338.5023 2.0059 1.1624 2.6164.6602.5814 1.5213.8722 2.5833.8722 1.0907 0 1.9518-.2471 2.5833-.7414.6315-.5232.9472-1.2355.9472-2.1367 0-.7558-.2583-1.3808-.775-1.875-.4879-.4943-1.1051-.9012-1.8513-1.221-.7176-.3198-1.7509-.6832-3.1-1.0902-1.9518-.6105-3.5448-1.221-4.779-1.8315-1.2343-.6105-2.2963-1.5117-3.1861-2.7036-.8898-1.1919-1.3347-2.7472-1.3347-4.6659 0-2.849 1.019-5.0728 3.0569-6.6717C75.8513.814 78.5064 0 81.7785 0c3.3296 0 6.0133.814 8.0512 2.442 2.0379 1.5989 3.1287 3.8373 3.2722 6.7153h-7.9651c-.0574-.9884-.4162-1.7587-1.0764-2.311-.6602-.5815-1.5069-.8722-2.5402-.8722-.8898 0-1.6074.247-2.1527.7413-.5454.4651-.8181 1.1483-.8181 2.0495 0 .9884.4593 1.7588 1.3778 2.3111.9185.5524 2.3536 1.1483 4.3054 1.7879 1.9518.6686 3.5305 1.3082 4.736 1.9187 1.2343.6105 2.2963 1.4971 3.1861 2.66.8898 1.1628 1.3347 2.66 1.3347 4.4914 0 1.7443-.4449 3.3287-1.3347 4.7531-.8611 1.4245-2.1241 2.5583-3.7888 3.4014-1.6648.843-3.631 1.2645-5.8985 1.2645zM122.002 31.0478l-10.161-13.518v13.518h-7.363V.4361h7.363v13.4308L121.915.4361h8.654l-11.71 15.0006L131 31.0478h-8.998zM13.4202 47.5051c0 .8694-.296 1.594-.888 2.1736-.5821.5696-1.4751.8544-2.6788.8544H7.8702v4.362H6.5234V44.4472h3.33c1.1643 0 2.0473.2848 2.6492.8545.6117.5696.9176 1.3041.9176 2.2034zm-3.5668 1.9037c.7499 0 1.3024-.1649 1.6576-.4946.3552-.3298.5328-.7995.5328-1.4091 0-1.2891-.7301-1.9336-2.1904-1.9336H7.8702v3.8373h1.9832zM46.041 53.7858h3.6112v1.1093h-4.9581V44.4472h1.3469v9.3386zM81.9997 44.4472v6.6105c0 .9294.222 1.6189.666 2.0686.4538.4497 1.0804.6745 1.8796.6745.7893 0 1.406-.2248 1.85-.6745.4539-.4497.6808-1.1392.6808-2.0686v-6.6105h1.3468v6.5955c0 .8694-.1727 1.6039-.518 2.2035-.3454.5896-.814 1.0293-1.406 1.3191-.5822.2898-1.2383.4347-1.9684.4347-.7302 0-1.3912-.1449-1.9832-.4347-.5822-.2898-1.0459-.7295-1.3912-1.3191-.3355-.5996-.5032-1.3341-.5032-2.2035v-6.5955h1.3468zM123.54 55c-.68 0-1.292-.1199-1.835-.3598-.533-.2498-.952-.5895-1.258-1.0193-.306-.4397-.464-.9443-.473-1.5139h1.435c.05.4896.247.9044.592 1.2441.355.3298.869.4947 1.539.4947.642 0 1.145-.1599 1.51-.4797.375-.3298.562-.7495.562-1.2591 0-.3997-.108-.7245-.325-.9743-.217-.2499-.489-.4397-.814-.5697-.326-.1299-.765-.2698-1.317-.4197-.681-.1798-1.229-.3597-1.643-.5396-.405-.1799-.755-.4597-1.051-.8394-.286-.3898-.429-.9094-.429-1.559 0-.5696.143-1.0742.429-1.5139.286-.4397.686-.7795 1.199-1.0193.523-.2398 1.12-.3598 1.791-.3598.967 0 1.756.2449 2.368.7345.621.4897.972 1.1392 1.05 1.9487h-1.48c-.049-.3997-.256-.7495-.621-1.0493-.365-.3098-.849-.4647-1.451-.4647-.562 0-1.021.1499-1.376.4497-.355.2898-.533.6995-.533 1.2292 0 .3797.104.6895.311.9293.217.2399.479.4248.784.5547.316.1199.755.2598 1.318.4197.68.1898 1.228.3797 1.642.5696.415.1799.77.4647 1.066.8544.296.3797.444.8994.444 1.5589 0 .5097-.133.9893-.4 1.439-.266.4497-.661.8145-1.184 1.0943-.522.2798-1.139.4197-1.85.4197z" fill="#083C6E"/><path d="M0 12.6513h15.4727v6.1322H0v-6.1322z" fill="#083C6E"/></svg>