<svg width="142" height="95" viewBox="0 0 142 95" fill="none" xmlns="http://www.w3.org/2000/svg">
<path d="M14.6596 38.2682C17.6701 37.2252 20.5102 36.9181 23.18 37.3468C25.8499 37.7755 28.1757 38.8772 30.1575 40.6519C32.1569 42.3897 33.6515 44.687 34.6413 47.5438C35.6216 50.3731 35.8686 53.1026 35.3824 55.7324C34.9233 58.3527 33.764 60.6619 31.9045 62.6598C30.0722 64.6484 27.6644 66.1595 24.681 67.1931L13.9816 70.9001L3.9602 41.9752L14.6596 38.2682ZM22.1207 61.25C24.7515 60.3386 26.547 58.9012 27.5071 56.9379C28.4673 54.9746 28.4858 52.6608 27.5626 49.9963C26.6395 47.3318 25.1887 45.5116 23.2102 44.5356C21.2317 43.5597 18.9271 43.5275 16.2963 44.439L13.0011 45.5807L18.8255 62.3917L22.1207 61.25Z" fill="white"/>
<path d="M48.533 32.8548L50.5601 38.7057L59.8763 35.478L61.7607 40.9169L52.4445 44.1446L54.6429 50.4899L65.1796 46.8394L67.1353 52.4842L49.642 58.545L39.6206 29.6201L57.1139 23.5594L59.0696 29.2042L48.533 32.8548Z" fill="white"/>
<path d="M88.1872 45.5136C86.0988 46.2371 84.1085 46.5421 82.2162 46.4286C80.3238 46.3151 78.6427 45.7591 77.1729 44.7608C75.7302 43.7531 74.6534 42.311 73.9425 40.4344L81.3466 37.8691C81.8263 38.9029 82.4779 39.6001 83.3016 39.9608C84.1157 40.2941 85.0245 40.2869 86.028 39.9392C87.0586 39.5821 87.7914 39.0667 88.2263 38.393C88.6516 37.6919 88.7168 36.9155 88.4218 36.064C88.1743 35.3498 87.7256 34.8438 87.0756 34.5459C86.4528 34.2387 85.7364 34.0561 84.9266 33.9983C84.1439 33.9311 83.0485 33.926 81.6406 33.983C79.5965 34.0452 77.8914 33.9898 76.5253 33.817C75.1592 33.6442 73.8607 33.1404 72.6297 32.3054C71.3988 31.4705 70.4692 30.1465 69.8411 28.3336C68.9084 25.6416 69.1432 23.2067 70.5454 21.0287C71.9381 18.8233 74.1803 17.185 77.2722 16.1138C80.4182 15.0238 83.2206 14.9143 85.6791 15.7854C88.1282 16.6291 89.8916 18.3871 90.9694 21.0595L83.4432 23.6671C83.0654 22.7519 82.4742 22.1415 81.6696 21.8357C80.8554 21.5024 79.9602 21.5049 78.9838 21.8432C78.143 22.1345 77.5459 22.6029 77.1924 23.2484C76.8294 23.8665 76.7953 24.6012 77.0904 25.4528C77.414 26.3867 78.1001 26.9643 79.1488 27.1855C80.1975 27.4068 81.7487 27.5 83.8023 27.4654C85.8655 27.4582 87.5665 27.5457 88.9055 27.7279C90.2715 27.9007 91.5653 28.3908 92.7868 29.1983C94.0082 30.0058 94.9187 31.2748 95.5183 33.0053C96.0893 34.6535 96.1876 36.2962 95.8132 37.9335C95.4659 39.5613 94.6437 41.0461 93.3466 42.3877C92.0496 43.7293 90.3298 44.7713 88.1872 45.5136Z" fill="white"/>
<path d="M125.443 32.2828L111.417 22.8361L115.842 35.6092L108.885 38.0194L98.8639 9.09449L105.821 6.68427L110.217 19.375L115.34 3.38607L123.517 0.553006L117.363 18.5608L133.945 29.3369L125.443 32.2828Z" fill="white"/>
<path d="M28.2325 83.3797C28.5172 84.2012 28.4747 84.9827 28.105 85.7242C27.7414 86.453 26.9909 87.0144 25.8535 87.4085L23.9796 88.0577L25.4076 92.1794L24.135 92.6203L20.7147 82.7482L23.8612 81.658C24.9613 81.2769 25.889 81.2569 26.6441 81.5981C27.4086 81.936 27.9381 82.5299 28.2325 83.3797ZM25.4855 86.3462C26.194 86.1007 26.6622 85.764 26.8898 85.3362C27.1175 84.9083 27.1315 84.4063 26.932 83.8303C26.51 82.6123 25.6091 82.2422 24.2293 82.7203L22.3553 83.3695L23.6116 86.9955L25.4855 86.3462Z" fill="white"/>
<path d="M61.1119 78.6352L64.5241 77.453L64.8872 78.5011L60.2024 80.1242L56.7821 70.2521L58.0547 69.8112L61.1119 78.6352Z" fill="white"/>
<path d="M92.0319 58.0394L94.196 64.2856C94.5002 65.1637 94.9357 65.7426 95.5025 66.0221C96.0786 66.2984 96.7442 66.3058 97.4993 66.0442C98.2452 65.7857 98.7543 65.3714 99.0266 64.8011C99.3082 64.2277 99.2969 63.5018 98.9927 62.6237L96.8286 56.3775L98.1012 55.9366L100.26 62.1686C100.545 62.9901 100.622 63.7407 100.492 64.4203C100.359 65.0904 100.06 65.6593 99.5956 66.127C99.1404 66.5914 98.5678 66.9431 97.8779 67.1821C97.188 67.4211 96.516 67.5006 95.8617 67.4206C95.2168 67.3373 94.6347 67.0737 94.1153 66.6296C93.6021 66.1729 93.2031 65.5338 92.9185 64.7123L90.7593 58.4803L92.0319 58.0394Z" fill="white"/>
<path d="M134.738 54.4113C134.095 54.6342 133.478 54.7212 132.886 54.6722C132.301 54.6106 131.794 54.4268 131.364 54.1209C130.931 53.8056 130.617 53.3804 130.421 52.8454L131.777 52.3754C131.984 52.822 132.307 53.1492 132.744 53.3572C133.188 53.5525 133.726 53.5404 134.36 53.3207C134.966 53.1108 135.39 52.795 135.63 52.3733C135.876 51.9389 135.916 51.481 135.749 50.9994C135.618 50.6217 135.409 50.3504 135.122 50.1854C134.835 50.0204 134.517 49.9298 134.167 49.9136C133.817 49.8975 133.356 49.909 132.785 49.9483C132.083 50.0012 131.506 50.0105 131.056 49.9762C130.615 49.9386 130.192 49.7889 129.788 49.527C129.39 49.2524 129.085 48.8083 128.872 48.1945C128.686 47.6563 128.656 47.1326 128.782 46.6234C128.909 46.1143 129.175 45.6624 129.581 45.2679C129.997 44.87 130.522 44.5613 131.156 44.3417C132.069 44.0251 132.895 43.9981 133.633 44.2605C134.381 44.5197 134.925 45.0188 135.264 45.7578L133.866 46.2423C133.688 45.8807 133.378 45.6181 132.935 45.4543C132.489 45.2811 131.981 45.293 131.412 45.49C130.881 45.6742 130.497 45.966 130.259 46.3656C130.018 46.7557 129.985 47.201 130.158 47.7014C130.282 48.0602 130.482 48.319 130.756 48.4778C131.04 48.6334 131.347 48.7225 131.679 48.7451C132.016 48.755 132.477 48.7435 133.061 48.7104C133.766 48.667 134.346 48.6671 134.799 48.7109C135.25 48.7452 135.679 48.898 136.086 49.1693C136.49 49.4313 136.8 49.8738 137.016 50.497C137.183 50.9786 137.214 51.4754 137.109 51.9875C137.005 52.4997 136.751 52.9735 136.349 53.4091C135.946 53.8447 135.41 54.1788 134.738 54.4113Z" fill="white"/>
<path d="M4.14169 54.8399L18.7618 49.7746L20.7693 55.5688L6.14918 60.6342L4.14169 54.8399Z" fill="white"/>
</svg>
