<svg width="196" height="24" viewBox="0 0 196 24" fill="none" xmlns="http://www.w3.org/2000/svg">
<path d="M21.5156 7.125C22.4531 6.42188 23.2969 5.57812 23.9531 4.59375C23.1094 4.96875 22.125 5.25 21.1406 5.34375C22.1719 4.73438 22.9219 3.79688 23.2969 2.625C22.3594 3.1875 21.2812 3.60938 20.2031 3.84375C19.2656 2.85938 18 2.29688 16.5938 2.29688C13.875 2.29688 11.6719 4.5 11.6719 7.21875C11.6719 7.59375 11.7188 7.96875 11.8125 8.34375C7.73438 8.10938 4.07812 6.14062 1.64062 3.1875C1.21875 3.89062 0.984375 4.73438 0.984375 5.67188C0.984375 7.35938 1.82812 8.85938 3.1875 9.75C2.39062 9.70312 1.59375 9.51562 0.9375 9.14062V9.1875C0.9375 11.5781 2.625 13.5469 4.875 14.0156C4.5 14.1094 4.03125 14.2031 3.60938 14.2031C3.28125 14.2031 3 14.1562 2.67188 14.1094C3.28125 16.0781 5.10938 17.4844 7.26562 17.5312C5.57812 18.8438 3.46875 19.6406 1.17188 19.6406C0.75 19.6406 0.375 19.5938 0 19.5469C2.15625 20.9531 4.73438 21.75 7.54688 21.75C16.5938 21.75 21.5156 14.2969 21.5156 7.78125C21.5156 7.54688 21.5156 7.35938 21.5156 7.125ZM74.5781 13.5L75.2344 9.1875H71.0625V6.375C71.0625 5.15625 71.625 4.03125 73.5 4.03125H75.4219V0.328125C75.4219 0.328125 73.6875 0 72.0469 0C68.625 0 66.375 2.10938 66.375 5.85938V9.1875H62.5312V13.5H66.375V24H71.0625V13.5H74.5781ZM124.5 6.60938C121.5 6.60938 119.109 9.04688 119.109 12C119.109 15 121.5 17.3906 124.5 17.3906C127.453 17.3906 129.891 15 129.891 12C129.891 9.04688 127.453 6.60938 124.5 6.60938ZM124.5 15.5156C122.578 15.5156 120.984 13.9688 120.984 12C120.984 10.0781 122.531 8.53125 124.5 8.53125C126.422 8.53125 127.969 10.0781 127.969 12C127.969 13.9688 126.422 15.5156 124.5 15.5156ZM131.344 6.42188C131.344 5.71875 130.781 5.15625 130.078 5.15625C129.375 5.15625 128.812 5.71875 128.812 6.42188C128.812 7.125 129.375 7.6875 130.078 7.6875C130.781 7.6875 131.344 7.125 131.344 6.42188ZM134.906 7.6875C134.812 6 134.438 4.5 133.219 3.28125C132 2.0625 130.5 1.6875 128.812 1.59375C127.078 1.5 121.875 1.5 120.141 1.59375C118.453 1.6875 117 2.0625 115.734 3.28125C114.516 4.5 114.141 6 114.047 7.6875C113.953 9.42188 113.953 14.625 114.047 16.3594C114.141 18.0469 114.516 19.5 115.734 20.7656C117 21.9844 118.453 22.3594 120.141 22.4531C121.875 22.5469 127.078 22.5469 128.812 22.4531C130.5 22.3594 132 21.9844 133.219 20.7656C134.438 19.5 134.812 18.0469 134.906 16.3594C135 14.625 135 9.42188 134.906 7.6875ZM132.656 18.1875C132.328 19.125 131.578 19.8281 130.688 20.2031C129.281 20.7656 126 20.625 124.5 20.625C122.953 20.625 119.672 20.7656 118.312 20.2031C117.375 19.8281 116.672 19.125 116.297 18.1875C115.734 16.8281 115.875 13.5469 115.875 12C115.875 10.5 115.734 7.21875 116.297 5.8125C116.672 4.92188 117.375 4.21875 118.312 3.84375C119.672 3.28125 122.953 3.42188 124.5 3.42188C126 3.42188 129.281 3.28125 130.688 3.84375C131.578 4.17188 132.281 4.92188 132.656 5.8125C133.219 7.21875 133.078 10.5 133.078 12C133.078 13.5469 133.219 16.8281 132.656 18.1875ZM195.75 12C195.75 5.57812 190.547 0.375 184.125 0.375C177.703 0.375 172.5 5.57812 172.5 12C172.5 16.9688 175.547 21.1406 179.859 22.8281C179.766 21.9375 179.672 20.5312 179.906 19.5C180.141 18.6094 181.266 13.7344 181.266 13.7344C181.266 13.7344 180.938 13.0312 180.938 12C180.938 10.4062 181.875 9.1875 183.047 9.1875C184.031 9.1875 184.5 9.9375 184.5 10.8281C184.5 11.8125 183.844 13.3125 183.516 14.7188C183.281 15.8438 184.125 16.7812 185.25 16.7812C187.312 16.7812 188.906 14.625 188.906 11.4844C188.906 8.67188 186.891 6.75 184.078 6.75C180.75 6.75 178.828 9.23438 178.828 11.7656C178.828 12.7969 179.203 13.875 179.672 14.4375C179.766 14.5312 179.766 14.6719 179.766 14.7656C179.672 15.1406 179.438 15.9375 179.438 16.0781C179.391 16.3125 179.25 16.3594 179.016 16.2656C177.562 15.5625 176.672 13.4531 176.672 11.7188C176.672 8.0625 179.344 4.6875 184.359 4.6875C188.391 4.6875 191.531 7.59375 191.531 11.4375C191.531 15.4219 189 18.6562 185.484 18.6562C184.312 18.6562 183.188 18.0469 182.812 17.2969C182.812 17.2969 182.25 19.5469 182.109 20.0625C181.828 21.0938 181.125 22.3594 180.656 23.1094C181.734 23.4844 182.906 23.625 184.125 23.625C190.547 23.625 195.75 18.4219 195.75 12Z" fill="white"/>
</svg>
